<?xml version="1.0" encoding="UTF-8"?>
<svg id="Layer_1" data-name="Layer 1" xmlns="http://www.w3.org/2000/svg" xmlns:xlink="http://www.w3.org/1999/xlink" viewBox="0 0 1448.72 512">
  <defs>
    <style>
      .cls-1 {
        font-size: 72px;
      }

      .cls-1, .cls-2, .cls-3, .cls-4 {
        font-family: FuturaPT-Bold, 'Futura PT';
        font-weight: 700;
      }

      .cls-5 {
        font-family: FuturaPT-BookObl, 'Futura PT';
        font-style: oblique;
      }

      .cls-5, .cls-2 {
        font-size: 48px;
      }

      .cls-6 {
        stroke-width: .41px;
      }

      .cls-6, .cls-7, .cls-8, .cls-9, .cls-10, .cls-11, .cls-12, .cls-13, .cls-14, .cls-15, .cls-16, .cls-17, .cls-18, .cls-19, .cls-20, .cls-21, .cls-22, .cls-23, .cls-24, .cls-25, .cls-26, .cls-27, .cls-28, .cls-29 {
        stroke-miterlimit: 10;
      }

      .cls-6, .cls-7, .cls-8, .cls-9, .cls-10, .cls-11, .cls-13, .cls-30, .cls-14, .cls-31, .cls-15, .cls-16, .cls-17, .cls-18, .cls-19, .cls-20, .cls-21, .cls-22, .cls-23, .cls-24, .cls-25, .cls-26, .cls-27, .cls-28, .cls-29 {
        fill: none;
      }

      .cls-6, .cls-7, .cls-8, .cls-9, .cls-10, .cls-11, .cls-13, .cls-14, .cls-31, .cls-15, .cls-16, .cls-17, .cls-18, .cls-19, .cls-20, .cls-21, .cls-22, .cls-23, .cls-24, .cls-25, .cls-26, .cls-27, .cls-28, .cls-29 {
        stroke: #f20574;
      }

      .cls-7 {
        stroke-width: .51px;
      }

      .cls-8 {
        stroke-width: .74px;
      }

      .cls-9 {
        stroke-width: .67px;
      }

      .cls-10 {
        stroke-width: .38px;
      }

      .cls-11 {
        stroke-width: .58px;
      }

      .cls-32 {
        fill: #049dbf;
      }

      .cls-33 {
        letter-spacing: -.02em;
      }

      .cls-12 {
        fill: #04bfbf;
        stroke: #049dbf;
      }

      .cls-13 {
        stroke-width: .54px;
      }

      .cls-14 {
        stroke-width: .87px;
      }

      .cls-31 {
        stroke-miterlimit: 10;
        stroke-width: .97px;
      }

      .cls-15 {
        stroke-width: .25px;
      }

      .cls-34 {
        fill: #f20574;
      }

      .cls-35 {
        clip-path: url(#clippath-1);
      }

      .cls-16 {
        stroke-width: .61px;
      }

      .cls-17 {
        stroke-width: .77px;
      }

      .cls-18 {
        stroke-width: .32px;
      }

      .cls-19 {
        stroke-width: .45px;
      }

      .cls-20 {
        stroke-width: .84px;
      }

      .cls-21 {
        stroke-width: .35px;
      }

      .cls-22 {
        stroke-width: .48px;
      }

      .cls-3 {
        fill: #edf2fa;
        font-size: 168px;
      }

      .cls-36, .cls-4 {
        fill: #1a5c8e;
      }

      .cls-23 {
        stroke-width: .93px;
      }

      .cls-37 {
        fill: #f2cb07;
      }

      .cls-25 {
        stroke-width: .71px;
      }

      .cls-26 {
        stroke-width: .9px;
      }

      .cls-38 {
        clip-path: url(#clippath-2);
      }

      .cls-27 {
        stroke-width: .28px;
      }

      .cls-28 {
        stroke-width: .64px;
      }

      .cls-39 {
        fill: #0d3356;
      }

      .cls-40 {
        clip-path: url(#clippath);
      }

      .cls-4 {
        font-size: 44.1px;
      }

      .cls-29 {
        stroke-width: .8px;
      }
    </style>
    <clipPath id="clippath">
      <rect class="cls-30" x="31.18" y="31" width="450" height="450" rx="41" ry="41"/>
    </clipPath>
    <clipPath id="clippath-1">
      <path class="cls-30" d="M369.79,326.89c2.16-2.4,6.23-2.28,8.82-.35s3.9,5.17,4.36,8.37c.42,2.91.32,6.08,1.96,8.52.98,1.45,2.46,2.46,3.91,3.43.89.6,1.89,1.22,2.95,1.06,1.7-.26,2.42-2.24,3.07-3.84,2.28-5.65,8.41-9.93,14.39-8.78,1.68.32,3.25,1.03,4.78,1.79,7.59,3.75,14.53,8.82,20.42,14.91.82.85,1.62,1.72,2.22,2.73.97,1.63,1.37,3.53,1.75,5.39,1.08,5.23,2.16,10.46,3.24,15.69,1.25,6.04,2.5,12.15,2.31,18.32-.21,6.61-1.98,13.69,1.12,19.54,1.89,3.57,5.4,6.15,6.96,9.87,1.81,4.32.63,9.38-1.66,13.46-2.29,4.09-5.57,7.51-8.35,11.28-5.22,7.1-9.13,15.96-17.11,19.72-3.28,1.55-6.95,2.05-10.57,2.31-16.95,1.25-34.23-2.31-49.31-10.15-3.16-1.64-6.27-3.5-8.78-6.03-3.8-3.83-5.99-8.93-8.09-13.89-2.35-5.54-4.69-11.08-7.04-16.62-1.33-3.15-2.68-6.33-3.19-9.71-1.67-11.07,5.73-21.31,7.95-32.28,1.93-9.51-.03-19.74,3.43-28.8,2.87-7.52,9.07-13.19,15.07-18.57,1.92-1.72,3.85-3.45,5.77-5.17"/>
    </clipPath>
    <clipPath id="clippath-2">
      <rect class="cls-30" x="-572" y="0" width="512" height="512" rx="226" ry="226"/>
    </clipPath>
  </defs>
  <text class="cls-36" transform="translate(673.09 161.52)"><tspan class="cls-1"><tspan x="0" y="0">SLR FREE MAPPER</tspan></tspan><tspan class="cls-2"><tspan x="158.7" y="57.6">QGIS Plugin</tspan></tspan><tspan class="cls-5"><tspan x="-82.76" y="172.8">Open-sou</tspan><tspan class="cls-33" x="106.5" y="172.8">r</tspan><tspan x="119.56" y="172.8">ce flooding and SLR mapping </tspan></tspan><tspan class="cls-5"><tspan x="105.95" y="230.4">for </tspan><tspan class="cls-33" x="168.2" y="230.4">r</tspan><tspan x="181.26" y="230.4">esilient planning</tspan></tspan></text>
  <g>
    <g>
      <rect class="cls-39" x="102.63" y="265.99" width="157.12" height="94.07" rx="5" ry="5"/>
      <rect class="cls-39" x="198.29" y="221.84" width="118.41" height="138.22" rx="5" ry="5"/>
    </g>
    <rect class="cls-39" x="52.65" y="305.06" width="393.28" height="161.4"/>
    <circle class="cls-37" cx="394.83" cy="103.56" r="50.14"/>
    <g class="cls-40">
      <rect class="cls-12" x="-47.73" y="-93" width="666.2" height="679.07"/>
      <rect class="cls-32" x=".09" y="341.33" width="503.59" height="149.34"/>
      <g>
        <path class="cls-24" d="M31.18,305.06s27.54-15.56,52.68-7.78c25.14,7.78,24.91-7.93,56.34,23.13s-9.42,35.12,40.2,44.29,55.33,50.31,85.21,10.79-8.09-37.01,48.54-62.46c56.63-25.45,21.13-47.56,80.68-27.61s90.83,44.63,90.83,44.63"/>
        <path class="cls-31" d="M31.24,311.4c.33.17,26.67-12.15,52.22-6.37,25.55,5.79,25.67-11.03,56.7,17.89,31.03,28.92-7.18,32.94,41.64,42.69,48.82,9.75,52.74,50.61,84.25,11.72,31.51-38.88-4.69-37.43,51.38-60.41,56.07-22.98,21.87-43.35,80.19-24.01,58.32,19.35,90.21,41.26,90.21,41.26"/>
        <path class="cls-23" d="M31.31,317.73c.66.35,25.8-8.75,51.76-4.95,25.96,3.8,26.43-14.13,57.06,12.65,30.63,26.78-4.93,30.76,43.09,41.09,48.02,10.34,50.15,50.9,83.29,12.66,33.14-38.24-1.29-37.86,54.21-58.36,55.5-20.5,22.62-39.14,79.71-20.41,57.09,18.74,89.59,37.89,89.59,37.89"/>
        <path class="cls-26" d="M31.37,324.07c.99.52,24.93-5.34,51.3-3.53,26.37,1.81,27.19-17.23,57.42,7.41s-2.69,28.58,44.54,39.5,47.55,51.2,82.33,13.6,2.11-38.28,57.05-56.31c54.94-18.02,23.37-34.93,79.23-16.81,55.86,18.13,88.97,34.52,88.97,34.52"/>
        <path class="cls-14" d="M31.43,330.4c1.31.7,24.06-1.93,50.83-2.12,26.77-.19,27.95-20.33,57.78,2.18,29.83,22.51-.44,26.4,45.99,37.9,46.43,11.51,44.96,51.5,81.37,14.53,36.41-36.96,5.51-38.71,59.89-54.26,54.38-15.55,24.11-30.72,78.74-13.2,54.63,17.52,88.35,31.15,88.35,31.15"/>
        <path class="cls-20" d="M31.49,336.73c1.64.87,23.19,1.47,50.37-.7s28.71-23.43,58.13-3.06c29.43,20.37,1.8,24.22,47.43,36.31,45.63,12.09,42.37,51.79,80.41,15.47s8.91-39.13,62.73-52.21c53.82-13.07,24.86-26.51,78.26-9.6,53.4,16.91,87.73,27.78,87.73,27.78"/>
        <path class="cls-29" d="M31.56,343.07c1.97,1.05,22.32,4.88,49.91.71,27.59-4.17,29.47-26.53,58.49-8.3s4.05,22.03,48.88,34.71c44.83,12.68,39.77,52.09,79.45,16.41,39.67-35.68,12.31-39.56,65.56-50.16,53.25-10.6,25.6-22.3,77.78-6,52.17,16.3,87.11,24.41,87.11,24.41"/>
        <path class="cls-17" d="M31.62,349.4c2.3,1.22,21.45,8.29,49.45,2.13,28-6.16,30.23-29.63,58.85-13.54,28.62,16.09,6.29,19.85,50.33,33.12s37.18,52.39,78.48,17.34,15.71-39.98,68.4-48.11c52.69-8.12,26.35-18.09,77.3-2.4,50.95,15.69,86.49,21.04,86.49,21.04"/>
        <path class="cls-8" d="M31.68,355.74c2.63,1.39,20.59,11.69,48.99,3.54,28.4-8.15,30.99-32.73,59.21-18.78s8.54,17.67,51.78,31.52c43.24,13.85,34.59,52.68,77.52,18.28,42.93-34.4,19.11-40.41,71.24-46.06,52.13-5.65,27.1-13.88,76.81,1.2,49.72,15.08,85.87,17.66,85.87,17.66"/>
        <path class="cls-25" d="M31.74,362.07c2.96,1.57,19.72,15.1,48.53,4.96,28.81-10.14,31.75-35.83,59.57-24.01,27.82,11.82,10.78,15.49,53.22,29.92s31.99,52.98,76.56,19.22c44.57-33.77,22.51-40.83,74.08-44.01s27.84-9.67,76.33,4.8c48.49,14.47,85.26,14.29,85.26,14.29"/>
        <path class="cls-9" d="M31.81,368.41c3.29,1.74,18.85,18.51,48.07,6.37,29.22-12.13,32.51-38.93,59.92-29.25s13.03,13.31,54.67,28.33c41.65,15.02,29.4,53.28,75.6,20.15,46.2-33.13,25.91-41.26,76.91-41.96s28.59-5.46,75.85,8.4c47.26,13.86,84.64,10.92,84.64,10.92"/>
        <path class="cls-28" d="M31.87,374.74c3.61,1.92,17.98,21.91,47.61,7.79,29.63-14.13,33.26-42.03,60.28-34.49,27.02,7.54,15.27,11.13,56.12,26.73,40.85,15.6,26.81,53.57,74.64,21.09,47.83-32.49,29.31-41.68,79.75-39.91,50.44,1.78,29.34-1.25,75.37,12s84.02,7.55,84.02,7.55"/>
        <path class="cls-16" d="M31.93,381.08c3.94,2.09,17.11,25.32,47.15,9.2,30.03-16.12,34.02-45.13,60.64-39.73,26.62,5.4,17.51,8.95,57.57,25.14,40.05,16.19,24.21,53.87,73.68,22.02,49.46-31.85,32.71-42.11,82.59-37.86s30.08,2.96,74.88,15.6c44.8,12.64,83.4,4.18,83.4,4.18"/>
        <path class="cls-11" d="M31.99,387.41c4.27,2.26,16.24,28.73,46.68,10.62,30.44-18.11,34.78-48.23,61-44.97s19.76,6.77,59.01,23.54,21.62,54.17,72.72,22.96c51.1-31.21,36.11-42.53,85.42-35.81,49.31,6.73,30.83,7.17,74.4,19.2,43.57,12.03,82.78.81,82.78.81"/>
        <path class="cls-13" d="M32.06,393.75c4.6,2.44,15.37,32.13,46.22,12.03,30.85-20.1,35.54-51.33,61.36-50.2,25.81,1.12,22,4.59,60.46,21.95,38.46,17.36,19.03,54.46,71.75,23.9,52.73-30.57,39.51-42.96,88.26-33.75,48.75,9.2,31.58,11.38,73.92,22.8,42.34,11.42,82.16-2.56,82.16-2.56"/>
        <path class="cls-7" d="M32.12,400.08c4.93,2.61,14.51,35.54,45.76,13.45,31.26-22.09,36.3-54.43,61.71-55.44s24.25,2.41,61.91,20.35c37.66,17.94,16.43,54.76,70.79,24.83s42.91-43.38,91.1-31.7c48.19,11.68,32.32,15.6,73.43,26.41,41.11,10.81,81.54-5.93,81.54-5.93"/>
        <path class="cls-22" d="M32.18,406.42c5.26,2.79,13.64,38.95,45.3,14.86,31.66-24.08,37.06-57.53,62.07-60.68,25.01-3.15,26.49.23,63.36,18.75s13.84,55.06,69.83,25.77c55.99-29.29,46.31-43.81,93.94-29.65,47.62,14.15,33.07,19.81,72.95,30.01,39.88,10.2,80.92-9.3,80.92-9.3"/>
        <path class="cls-19" d="M32.24,412.75c5.59,2.96,12.77,42.35,44.84,16.28,32.07-26.07,37.82-60.63,62.43-65.92s28.74-1.95,64.8,17.16c36.06,19.11,11.25,55.35,68.87,26.71s49.71-44.23,96.77-27.6c47.06,16.63,33.81,24.02,72.47,33.61,38.66,9.59,80.3-12.67,80.3-12.67"/>
        <path class="cls-6" d="M32.31,419.08c5.91,3.14,11.9,45.76,44.38,17.69s38.58-63.73,62.79-71.16c24.21-7.43,30.98-4.13,66.25,15.56,35.27,19.69,8.65,55.65,67.91,27.64,59.26-28.01,53.11-44.66,99.61-25.55,46.5,19.11,34.56,28.23,71.99,37.21,37.43,8.98,79.68-16.04,79.68-16.04"/>
        <path class="cls-10" d="M32.37,425.42c6.24,3.31,11.03,49.17,43.92,19.11s39.34-66.83,63.15-76.4c23.81-9.57,33.23-6.31,67.7,13.97,34.47,20.28,6.06,55.95,66.95,28.58,60.89-27.37,56.51-45.08,102.45-23.5,45.94,21.58,35.31,32.44,71.5,40.81,36.2,8.37,79.06-19.42,79.06-19.42"/>
        <path class="cls-21" d="M32.43,431.75c6.57,3.48,10.16,52.57,43.46,20.52s40.1-69.93,63.5-81.63c23.41-11.71,35.47-8.49,69.15,12.37,33.67,20.86,3.47,56.24,65.99,29.52,62.52-26.73,59.91-45.51,105.29-21.45,45.37,24.06,36.05,36.65,71.02,44.41,34.97,7.76,78.44-22.79,78.44-22.79"/>
        <path class="cls-18" d="M32.49,438.09c6.9,3.66,9.29,55.98,43,21.94,33.7-34.04,40.86-73.03,63.86-86.87,23-13.84,37.72-10.67,70.59,10.78,32.88,21.45.87,56.54,65.02,30.45,64.15-26.09,63.31-45.93,108.12-19.4,44.81,26.53,36.8,40.86,70.54,48.01,33.74,7.15,77.82-26.16,77.82-26.16"/>
        <path class="cls-27" d="M32.56,444.42c7.23,3.83,8.43,59.39,42.54,23.35,34.11-36.03,41.62-76.13,64.22-92.11,22.6-15.98,39.96-12.85,72.04,9.18s-1.72,56.84,64.06,31.39c65.78-25.45,66.71-46.36,110.96-17.35,44.25,29.01,37.55,45.07,70.06,51.61,32.51,6.54,77.2-29.53,77.2-29.53"/>
        <path class="cls-15" d="M32.62,450.76c7.56,4.01,7.56,62.79,42.07,24.77s42.38-79.23,64.58-97.35,42.21-15.03,73.49,7.58c31.28,22.62-4.31,57.14,63.1,32.33s70.11-46.78,113.8-15.3c43.69,31.48,38.29,49.28,69.57,55.21,31.28,5.93,76.58-32.9,76.58-32.9"/>
      </g>
    </g>
    <path class="cls-34" d="M471.09,18c12.68,0,23,10.32,23,23v430c0,12.68-10.32,23-23,23H41.09c-12.68,0-23-10.32-23-23V41c0-12.68,10.32-23,23-23h430M471.09,0H41.09C18.45,0,.09,18.36.09,41v430c0,22.64,18.36,41,41,41h430c22.64,0,41-18.36,41-41V41c0-22.64-18.36-41-41-41h0Z"/>
    <g>
      <text class="cls-3" transform="translate(55.84 190.43)"><tspan x="0" y="0">SLR </tspan></text>
      <text class="cls-4" transform="translate(64.56 243.77)"><tspan x="0" y="0">FREE MAPPER</tspan></text>
    </g>
    <g>
      <rect class="cls-37" x="383.43" y="216.88" width="22.8" height="45.6"/>
      <path class="cls-37" d="M385.69,171.28h18.28c1.25,0,2.26,1.01,2.26,2.26v43.34h-22.8v-43.34c0-1.25,1.01-2.26,2.26-2.26Z"/>
      <polyline class="cls-37" points="406.23 262.48 406.23 308.08 383.43 308.08 383.43 262.48 406.23 262.48"/>
      <rect class="cls-37" x="383.43" y="308.08" width="22.8" height="45.6"/>
      <rect x="383.43" y="353.68" width="22.8" height="45.6"/>
      <circle cx="394.83" cy="416.61" r="40.13"/>
      <g class="cls-35">
        <g>
          <rect class="cls-34" x="383.44" y="216.88" width="22.8" height="45.6"/>
          <rect class="cls-34" x="383.44" y="262.48" width="22.8" height="45.6"/>
          <rect class="cls-34" x="383.44" y="308.08" width="22.8" height="45.6"/>
          <path class="cls-34" d="M406.24,378.14v-24.47h-22.8v24.47c3.62-1.07,7.44-1.67,11.4-1.67s7.78.6,11.4,1.67Z"/>
          <path class="cls-34" d="M406.24,378.14v21.13h-22.8v-21.13c-16.61,4.92-28.73,20.26-28.73,38.46,0,22.16,17.97,40.13,40.13,40.13s40.13-17.97,40.13-40.13c0-18.2-12.12-33.55-28.73-38.46Z"/>
          <path class="cls-34" d="M406.24,399.27v-21.13c-3.62-1.07-7.44-1.67-11.4-1.67s-7.78.6-11.4,1.67v21.13h22.8Z"/>
        </g>
      </g>
      <g>
        <path class="cls-37" d="M397.83,216.88c-1.65,0-3,.83-3,1.84v3.69c0,1.01,1.35,1.84,3,1.84h26.43c1.65,0,3-.83,3-1.84v-3.69c0-1.01-1.35-1.84-3-1.84h-26.43Z"/>
        <path class="cls-37" d="M397.83,262.48c-1.65,0-3,.83-3,1.84v3.69c0,1.01,1.35,1.84,3,1.84h26.43c1.65,0,3-.83,3-1.84v-3.69c0-1.01-1.35-1.84-3-1.84h-26.43Z"/>
        <path class="cls-37" d="M397.83,308.08c-1.65,0-3,.83-3,1.84v3.69c0,1.01,1.35,1.84,3,1.84h26.43c1.65,0,3-.83,3-1.84v-3.69c0-1.01-1.35-1.84-3-1.84h-26.43Z"/>
      </g>
    </g>
  </g>
  <g class="cls-38">
    <rect class="cls-12" x="-630.83" y="-29.9" width="666.2" height="679.07"/>
    <g>
      <path class="cls-16" d="M-586.26,268.12c4.82,2.56,20.93,30.96,57.65,11.25,36.73-19.71,41.61-55.19,74.16-48.58,32.55,6.6,21.42,10.95,70.4,30.74,48.98,19.79,29.61,65.88,90.1,26.93,60.49-38.94,40-51.49,100.99-46.29,60.99,5.2,36.79,3.62,91.57,19.08,54.78,15.46,101.98,5.11,101.98,5.11"/>
      <path class="cls-11" d="M-586.18,275.87c5.22,2.77,19.86,35.13,57.09,12.98,37.23-22.14,42.54-58.98,74.59-54.99,32.06,3.99,24.16,8.28,72.17,28.79,48,20.51,26.44,66.24,88.92,28.08,62.48-38.16,44.16-52.01,104.46-43.79,60.3,8.23,37.7,8.77,90.98,23.48,53.28,14.71,101.23.99,101.23.99"/>
      <path class="cls-13" d="M-586.11,283.61c5.63,2.98,18.8,39.29,56.53,14.71,37.72-24.58,43.46-62.77,75.03-61.39,31.57,1.37,26.91,5.61,73.94,26.84,47.03,21.22,23.27,66.6,87.75,29.22,64.48-37.38,48.32-52.53,107.93-41.28,59.62,11.26,38.61,13.92,90.39,27.89,51.78,13.96,100.47-3.13,100.47-3.13"/>
      <path class="cls-7" d="M-586.03,291.36c6.03,3.2,17.74,43.46,55.96,16.45,38.22-27.01,44.39-66.56,75.47-67.8,31.08-1.24,29.65,2.95,75.71,24.89,46.05,21.94,20.1,66.97,86.57,30.37,66.47-36.6,52.48-53.05,111.4-38.77,58.93,14.28,39.53,19.07,89.8,32.29,50.28,13.22,99.71-7.25,99.71-7.25"/>
      <path class="cls-22" d="M-585.95,299.1c6.43,3.41,16.68,47.63,55.4,18.18,38.72-29.45,45.32-70.35,75.91-74.2,30.59-3.86,32.4.28,77.48,22.93,45.08,22.65,16.92,67.33,85.39,31.51,68.47-35.81,56.63-53.57,114.87-36.26s40.44,24.22,89.21,36.69c48.77,12.47,98.95-11.38,98.95-11.38"/>
      <path class="cls-19" d="M-585.88,306.85c6.83,3.62,15.61,51.79,54.83,19.91,39.22-31.88,46.25-74.14,76.34-80.61,30.09-6.47,35.14-2.39,79.25,20.98,44.1,23.37,13.75,67.69,84.22,32.66,70.47-35.03,60.79-54.09,118.34-33.76,57.55,20.34,41.35,29.37,88.62,41.1,47.27,11.73,98.2-15.5,98.2-15.5"/>
      <path class="cls-6" d="M-585.8,314.6c7.23,3.83,14.55,55.96,54.27,21.64,39.72-34.32,47.18-77.93,76.78-87.02,29.6-9.08,37.89-5.05,81.02,19.03,43.13,24.08,10.58,68.05,83.04,33.8,72.46-34.25,64.95-54.61,121.81-31.25,56.86,23.36,42.26,34.52,88.03,45.5,45.77,10.98,97.44-19.62,97.44-19.62"/>
      <path class="cls-10" d="M-585.72,322.34c7.63,4.05,13.49,60.12,53.71,23.37,40.22-36.76,48.11-81.72,77.22-93.42,29.11-11.7,40.63-7.72,82.79,17.08,42.15,24.8,7.41,68.42,81.87,34.95,74.46-33.47,69.11-55.13,125.28-28.74s43.18,39.67,87.44,49.9c44.26,10.24,96.68-23.74,96.68-23.74"/>
      <path class="cls-21" d="M-585.65,330.09c8.04,4.26,12.43,64.29,53.14,25.1s49.04-85.51,77.66-99.83c28.62-14.31,43.38-10.39,84.56,15.13,41.18,25.51,4.24,68.78,80.69,36.1,76.45-32.69,73.26-55.65,128.75-26.23,55.49,29.42,44.09,44.82,86.85,54.31,42.76,9.49,95.92-27.86,95.92-27.86"/>
      <path class="cls-18" d="M-585.57,337.84c8.44,4.47,11.37,68.46,52.58,26.83,41.21-41.63,49.96-89.3,78.1-106.23,28.13-16.93,46.12-13.05,86.33,13.18,40.2,26.23,1.07,69.14,79.52,37.24,78.45-31.9,77.42-56.17,132.22-23.73,54.8,32.44,45,49.96,86.26,58.71,41.26,8.75,95.17-31.99,95.17-31.99"/>
      <path class="cls-27" d="M-585.5,345.58c8.84,4.69,10.3,72.62,52.01,28.56s50.89-93.09,78.53-112.64c27.64-19.54,48.87-15.72,88.1,11.23,39.23,26.94-2.1,69.51,78.34,38.39,80.44-31.12,81.58-56.69,135.69-21.22,54.11,35.47,45.91,55.11,85.67,63.11,39.76,8,94.41-36.11,94.41-36.11"/>
      <path class="cls-15" d="M-585.42,353.33c9.24,4.9,9.24,76.79,51.45,30.29,42.21-46.5,51.82-96.88,78.97-119.04,27.15-22.16,51.61-18.39,89.87,9.27,38.25,27.66-5.28,69.87,77.16,39.53,82.44-30.34,85.74-57.21,139.16-18.71,53.42,38.5,46.83,60.26,85.08,67.52,38.25,7.25,93.65-40.23,93.65-40.23"/>
    </g>
  </g>
</svg>